<svg width="30" height="30" viewBox="0 0 30 30" fill="none" xmlns="http://www.w3.org/2000/svg">
<path fill-rule="evenodd" clip-rule="evenodd" d="M29.6007 2.32787C30.1331 1.79534 30.1331 0.931943 29.6007 0.399416C29.0681 -0.133139 28.2046 -0.133139 27.672 0.399416L15 13.0715L2.32787 0.399416C1.79534 -0.133139 0.931943 -0.133139 0.399416 0.399416C-0.133139 0.931943 -0.133139 1.79534 0.399416 2.32787L13.0715 15L0.399416 27.672C-0.133139 28.2046 -0.133139 29.0681 0.399416 29.6007C0.931943 30.1331 1.79534 30.1331 2.32787 29.6007L15 16.9285L27.672 29.6007C28.2046 30.1331 29.0681 30.1331 29.6007 29.6007C30.1331 29.0681 30.1331 28.2046 29.6007 27.672L16.9285 15L29.6007 2.32787Z" fill="#858585"/>
</svg>
