<svg width="96" height="40" viewBox="0 0 96 40" fill="none" xmlns="http://www.w3.org/2000/svg">
<path d="M95.0648 0.0148835C95.032 0.0148835 95.0171 0 95.0052 0C94.9725 0 94.9427 0.0148851 94.91 0.0327449C34.8653 6.07829 6.6498 32.1834 0 38.6069L0.88406 40H11.3767C38.6456 12.5763 75.4964 3.47373 94.9874 0.482217L95.0022 0.4971C95.0142 0.4971 95.029 0.464355 95.0469 0.464355C95.157 0.449472 95.2493 0.357197 95.2493 0.235155C95.2493 0.12502 95.1689 0.0476277 95.0618 0.0178613L95.0648 0.0148835ZM1.5032 14.0765L0.869177 15.2701L13.752 24.6644C16.3566 23.1433 19.0237 21.7354 21.7384 20.4018L13.1031 14.0765H1.5032ZM30.1384 26.5367C27.9982 28.1203 25.8283 29.7961 23.4856 31.7637L34.8058 39.9941H46.5426L47.0397 38.9254L30.1384 26.5367Z" fill="black"/>
</svg>
