<svg width="50" height="50" viewBox="0 0 50 50" fill="none" xmlns="http://www.w3.org/2000/svg">
<rect width="50" height="50" rx="10" fill="black"/>
<path d="M30.7042 19.2756C30.5906 18.1297 30.1029 17.2396 29.2411 16.6051C28.3794 15.9706 27.2099 15.6534 25.7326 15.6534C24.7288 15.6534 23.8813 15.7955 23.19 16.0795C22.4987 16.3542 21.9684 16.7377 21.5991 17.2301C21.2392 17.7225 21.0593 18.2812 21.0593 18.9062C21.0404 19.4271 21.1493 19.8816 21.386 20.2699C21.6322 20.6581 21.9684 20.9943 22.3945 21.2784C22.8207 21.553 23.3131 21.7945 23.8718 22.0028C24.4305 22.2017 25.0271 22.3722 25.6616 22.5142L28.2752 23.1392C29.5442 23.4233 30.7089 23.8021 31.7695 24.2756C32.8301 24.7491 33.7487 25.3314 34.5252 26.0227C35.3017 26.714 35.9031 27.5284 36.3292 28.4659C36.7648 29.4034 36.9873 30.4782 36.9968 31.6903C36.9873 33.4706 36.5328 35.0142 35.6332 36.321C34.743 37.6184 33.4551 38.6269 31.7695 39.3466C30.0934 40.0568 28.0716 40.4119 25.7042 40.4119C23.3557 40.4119 21.3103 40.0521 19.5678 39.3324C17.8349 38.6127 16.4807 37.5473 15.5053 36.1364C14.5394 34.7159 14.0328 32.9593 13.9854 30.8665H19.9371C20.0034 31.8419 20.2828 32.6562 20.7752 33.3097C21.2771 33.9536 21.9447 34.4413 22.7781 34.7727C23.6209 35.0947 24.5726 35.2557 25.6332 35.2557C26.6748 35.2557 27.5792 35.1042 28.3462 34.8011C29.1228 34.4981 29.7241 34.0767 30.1502 33.5369C30.5764 32.9972 30.7894 32.3769 30.7894 31.6761C30.7894 31.0227 30.5953 30.4735 30.207 30.0284C29.8282 29.5833 29.2695 29.2045 28.5309 28.892C27.8017 28.5795 26.9068 28.2955 25.8462 28.0398L22.6786 27.2443C20.226 26.6477 18.2894 25.715 16.869 24.446C15.4485 23.1771 14.743 21.4678 14.7525 19.3182C14.743 17.5568 15.2118 16.018 16.1587 14.7017C17.1152 13.3854 18.4267 12.358 20.0934 11.6193C21.7601 10.8807 23.654 10.5114 25.7752 10.5114C27.9343 10.5114 29.8188 10.8807 31.4286 11.6193C33.0479 12.358 34.3074 13.3854 35.207 14.7017C36.1067 16.018 36.5707 17.5426 36.5991 19.2756H30.7042Z" fill="white"/>
</svg>
