<svg width="50" height="50" viewBox="0 0 50 50" fill="none" xmlns="http://www.w3.org/2000/svg">
<path d="M37.8393 9.33984V10.1754C36.7372 10.3711 35.903 10.7174 35.3367 11.2141C34.5255 11.9518 33.5689 13.0809 32.9414 14.6014L20.1737 40.6609H19.3242L6.5066 14.2627C5.90965 12.9078 5.0981 12.0798 4.85321 11.7787C4.47054 11.312 3.99987 10.9469 3.4412 10.6835C2.88251 10.42 2.12868 10.2507 1.17969 10.1754V9.33984H13.6515V10.1754C12.2127 10.3109 11.5268 10.5518 11.0982 10.898C10.6696 11.2443 10.4553 11.6884 10.4553 12.2303C10.4553 12.9831 10.8074 14.1573 11.5115 15.7531L20.9772 33.7056L30.2322 15.9789C30.9516 14.2326 31.5484 13.0207 31.5484 12.3432C31.5484 11.9067 31.3265 11.4889 30.8826 11.0899C30.4387 10.691 29.9364 10.4087 28.8803 10.2431C28.8037 10.2281 28.6736 10.2055 28.49 10.1754V9.33984H37.8393Z" fill="black"/>
<path d="M48.8202 9.33984V10.1754C47.7181 10.3711 46.884 10.7174 46.3176 11.2141C45.5064 11.9518 44.5499 13.0809 43.9223 14.6014L32.7171 40.6609H31.8676L20.0266 14.2627C19.4296 12.9078 18.6181 12.0798 18.3732 11.7787C17.9905 11.312 17.5198 10.9469 16.9612 10.6835C16.4025 10.42 15.8964 10.2507 14.9474 10.1754V9.33984H27.1715V10.1754C25.7327 10.3109 25.0467 10.5518 24.6182 10.898C24.1896 11.2443 23.9753 11.6884 23.9753 12.2303C23.9753 12.9831 24.3273 14.1573 25.0314 15.7531L33.5206 33.7056L41.2131 15.9789C41.9325 14.2326 42.5293 13.0207 42.5293 12.3432C42.5293 11.9067 42.3074 11.4889 41.8635 11.0899C41.4196 10.691 40.6696 10.4087 39.6135 10.2431C39.5369 10.2281 39.4068 10.2055 39.2232 10.1754V9.33984H48.8202Z" fill="black"/>
</svg>
