<svg width="50" height="50" viewBox="0 0 50 50" fill="none" xmlns="http://www.w3.org/2000/svg">
<g clip-path="url(#clip0_234_16)">
<path fill-rule="evenodd" clip-rule="evenodd" d="M19.8375 31.5315L19.8359 17.3834L33.3453 24.4818L19.8375 31.5315ZM49.5 14.9317C49.5 14.9317 49.0109 11.462 47.5125 9.93405C45.6109 7.92773 43.4797 7.91827 42.5031 7.80183C35.5062 7.29198 25.0109 7.29199 25.0109 7.29199H24.9891C24.9891 7.29199 14.4938 7.29198 7.49688 7.80183C6.51876 7.91827 4.38907 7.92773 2.48594 9.93405C0.987505 11.462 0.499996 14.9317 0.499996 14.9317C0.499996 14.9317 0 19.0073 0 23.0813V26.902C0 30.9776 0.499996 35.0516 0.499996 35.0516C0.499996 35.0516 0.987505 38.5214 2.48594 40.0493C4.38907 42.0556 6.88749 41.9927 7.99999 42.202C12 42.5891 25 42.7087 25 42.7087C25 42.7087 35.5062 42.6929 42.5031 42.1831C43.4797 42.0651 45.6109 42.0556 47.5125 40.0493C49.0109 38.5214 49.5 35.0516 49.5 35.0516C49.5 35.0516 50 30.9776 50 26.902V23.0813C50 19.0073 49.5 14.9317 49.5 14.9317Z" fill="#CE1312"/>
</g>
<defs>
<clipPath id="clip0_234_16">
<rect width="50" height="50" fill="white"/>
</clipPath>
</defs>
</svg>
